<?xml version="1.0"?><svg viewBox="0 0 48 48" xmlns="http://www.w3.org/2000/svg"><title/><g data-name="20-Compass" id="_20-Compass"><path d="M24,0A24,24,0,1,0,48,24,24,24,0,0,0,24,0Zm0,46A22,22,0,1,1,46,24,22,22,0,0,1,24,46Z"/><path d="M24.94,15.65a1,1,0,0,0-1.87,0l-3,8a1,1,0,0,0,0,.7l3,8a1,1,0,0,0,1.87,0l3-8a1,1,0,0,0,0-.7ZM24,29.15,22.07,24,24,18.85,25.93,24Z"/><path d="M24,5A19,19,0,1,0,43,24,19,19,0,0,0,24,5Zm1,35.95V37H23v3.95A17,17,0,0,1,7.05,25H11V23H7.05A17,17,0,0,1,23,7.05V11h2V7.05A17,17,0,0,1,40.95,23H37v2h3.95A17,17,0,0,1,25,40.95Z"/></g></svg>