<svg id="Grupo_21" data-name="Grupo 21" xmlns="http://www.w3.org/2000/svg" xmlns:xlink="http://www.w3.org/1999/xlink" width="100.262" height="30.08" viewBox="0 0 100.262 30.08">
  <defs>
    <clipPath id="clip-path">
      <rect id="Rectángulo_18" data-name="Rectángulo 18" width="100.262" height="30.08" fill="none"/>
    </clipPath>
  </defs>
  <g id="Grupo_12" data-name="Grupo 12" clip-path="url(#clip-path)">
    <path id="Trazado_1" data-name="Trazado 1" d="M609.783,45.923l-8.617,16.423a.522.522,0,0,1-.914,0l-8.635-16.423a.506.506,0,0,0-.448-.269h-4.174a.37.37,0,0,0-.323.556l13.58,25.441a.493.493,0,0,0,.878,0L614.71,46.21a.382.382,0,0,0-.323-.556h-4.174a.528.528,0,0,0-.448.269" transform="translate(-537.606 -41.839)" fill="#fff"/>
    <path id="Trazado_2" data-name="Trazado 2" d="M868.055,25.979l8.618-16.423a.522.522,0,0,1,.914,0l8.636,16.423a.506.506,0,0,0,.448.269h4.174a.37.37,0,0,0,.323-.556L877.568.27a.493.493,0,0,0-.878,0L863.11,25.71a.382.382,0,0,0,.323.556h4.174a.528.528,0,0,0,.448-.269" transform="translate(-790.955 -0.001)" fill="#fff"/>
    <path id="Trazado_3" data-name="Trazado 3" d="M12.613,68.1H4.837a.5.5,0,0,1-.5-.5V60.623a.5.5,0,0,1,.5-.5h7.776c3.709,0,5.357,1.058,5.357,3.98s-1.612,3.98-5.357,3.98M4.837,49.454h7.668c2.831,0,4.264,1.2,4.264,3.442s-1.433,3.442-4.264,3.442H4.837a.5.5,0,0,1-.5-.5V49.956a.5.5,0,0,1,.5-.5m13.347,8.319A5.658,5.658,0,0,0,21.1,52.52c0-4.088-3.189-6.867-7.686-6.867H.5a.5.5,0,0,0-.5.5V71.4a.5.5,0,0,0,.5.5H12.863c6.181,0,9.442-2.671,9.442-7.871s-4.121-6.257-4.121-6.257" transform="translate(0 -41.838)" fill="#fff"/>
    <path id="Trazado_4" data-name="Trazado 4" d="M329.814,68.1h-7.776a.5.5,0,0,1-.5-.5V60.623a.5.5,0,0,1,.5-.5h7.776c3.708,0,5.357,1.058,5.357,3.98s-1.612,3.98-5.357,3.98m-7.758-18.628h7.668c2.831,0,4.264,1.2,4.264,3.442s-1.433,3.442-4.264,3.442h-7.668a.5.5,0,0,1-.5-.5V49.956a.5.5,0,0,1,.5-.5M335.4,57.773a5.658,5.658,0,0,0,2.92-5.253c0-4.088-3.189-6.867-7.686-6.867H317.721a.5.5,0,0,0-.5.5V71.4a.5.5,0,0,0,.5.5h12.362c6.181,0,9.442-2.671,9.442-7.871s-4.121-6.257-4.121-6.257" transform="translate(-290.714 -41.838)" fill="#fff"/>
  </g>
</svg>
